<svg width="15" height="15" viewBox="0 0 15 15" fill="none" xmlns="http://www.w3.org/2000/svg">
<g clip-path="url(#clip0_336_684)">
<path d="M12.765 5.85515C13.0324 7.16749 12.8418 8.53184 12.2251 9.72068C11.6083 10.9095 10.6026 11.851 9.37569 12.3881C8.14879 12.9251 6.77485 13.0254 5.48298 12.6721C4.19112 12.3187 3.05943 11.5332 2.27663 10.4465C1.49383 9.35979 1.10724 8.03755 1.18133 6.70029C1.25543 5.36304 1.78572 4.0916 2.68379 3.09801C3.58185 2.10442 4.7934 1.44873 6.11639 1.2403C7.43937 1.03186 8.79383 1.28328 9.95389 1.95262" stroke="white" stroke-width="1.17105" stroke-linecap="round" stroke-linejoin="round"/>
<path d="M5.26978 6.44097L7.02635 8.19755L12.8816 2.34229" stroke="white" stroke-width="1.17105" stroke-linecap="round" stroke-linejoin="round"/>
</g>
<defs>
<clipPath id="clip0_336_684">
<rect width="14.0526" height="14.0526" fill="white"/>
</clipPath>
</defs>
</svg>
