<svg width="30" height="24" viewBox="0 0 30 24" fill="none" xmlns="http://www.w3.org/2000/svg">
<path d="M28.9867 11.1867L27.0667 20.7867C26.8849 21.6926 26.3952 22.5077 25.6806 23.0935C24.966 23.6793 24.0707 23.9996 23.1467 24H4C2.93913 24 1.92172 23.5786 1.17157 22.8284C0.421427 22.0783 0 21.0609 0 20V4C0 2.93913 0.421427 1.92172 1.17157 1.17157C1.92172 0.421427 2.93913 0 4 0H9.33333C9.59471 0.0020411 9.84972 0.0808634 10.0667 0.226667L13.7333 2.66667H21.3333C22.3942 2.66667 23.4116 3.08809 24.1618 3.83824C24.9119 4.58839 25.3333 5.6058 25.3333 6.66667H22.6667C22.6667 6.31305 22.5262 5.97391 22.2761 5.72386C22.0261 5.47381 21.687 5.33333 21.3333 5.33333H13.3333C13.072 5.33129 12.8169 5.25247 12.6 5.10667L8.93333 2.66667H4C3.64638 2.66667 3.30724 2.80714 3.05719 3.05719C2.80714 3.30724 2.66667 3.64638 2.66667 4V20C2.66667 20.3536 2.80714 20.6928 3.05719 20.9428C3.30724 21.1929 3.64638 21.3333 4 21.3333H4.24L6.26667 11.2133C6.44839 10.3074 6.93814 9.49229 7.65273 8.90652C8.36732 8.32075 9.26267 8.00043 10.1867 8H26.3733C26.7684 7.99902 27.1588 8.08583 27.5162 8.25416C27.8736 8.42249 28.1891 8.66814 28.44 8.97333C28.6891 9.27891 28.8673 9.63592 28.9618 10.0186C29.0563 10.4014 29.0648 10.8003 28.9867 11.1867Z" fill="black"/>
</svg>
