<svg width="20" height="20" viewBox="0 0 20 20" fill="none" xmlns="http://www.w3.org/2000/svg">
<path d="M14.1251 9.95792C15.6126 8.47051 16.1288 6.37949 15.6737 4.47314L17.7528 3.58209C17.9644 3.49144 18.2093 3.58941 18.3 3.80093C18.3222 3.8528 18.3337 3.90864 18.3337 3.96506V15.8332L12.5003 18.3332L7.50033 15.8332L2.24779 18.0843C2.03628 18.1749 1.79133 18.0769 1.70068 17.8654C1.67845 17.8136 1.66699 17.7577 1.66699 17.7013V5.83317L4.27443 4.71571C3.91718 6.55511 4.45088 8.53334 5.87553 9.95792L10.0003 14.0828L14.1251 9.95792ZM12.9466 8.77942L10.0003 11.7258L7.05405 8.77942C5.42686 7.15226 5.42686 4.51408 7.05405 2.8869C8.68124 1.25971 11.3194 1.25971 12.9466 2.8869C14.5738 4.51408 14.5738 7.15226 12.9466 8.77942Z" fill="black"/>
</svg>
