<svg width="27" height="34" viewBox="0 0 27 34" fill="none" xmlns="http://www.w3.org/2000/svg">
<path d="M25.2992 8.55388L18.2907 1.37638C17.4358 0.521935 16.2393 0.00925132 14.8718 0.00925132H4.78633C2.22222 -0.161649 0 2.05997 0 4.62335V28.5483C0 31.1117 2.05128 33.3333 4.78633 33.3333H21.8803C24.4445 33.3333 26.6667 31.2827 26.6667 28.5483V11.8009C26.6667 10.6046 26.1538 9.40835 25.2992 8.55388ZM8.20513 13.5098H13.3333C14.0172 13.5098 14.7008 14.0225 14.7008 14.877C14.7008 15.7313 14.188 16.244 13.3333 16.244H8.20513C7.52137 16.244 6.8376 15.7313 6.8376 14.877C6.8376 14.0225 7.52137 13.5098 8.20513 13.5098ZM18.4615 23.0798H8.20513C7.52137 23.0798 6.8376 22.5672 6.8376 21.7127C6.8376 20.8582 7.35043 20.3455 8.20513 20.3455H18.4615C19.1453 20.3455 19.829 20.8582 19.829 21.7127C19.829 22.5672 19.1453 23.0798 18.4615 23.0798Z" fill="black"/>
</svg>
