<svg width="20" height="20" viewBox="0 0 20 20" fill="none" xmlns="http://www.w3.org/2000/svg">
<path d="M13.4267 0.141492C13.8049 0.00567056 14.1467 -0.0299903 14.5087 0.0243048C14.8151 0.070335 15.1634 0.196642 15.4589 0.303602C17.2065 0.935422 18.5644 2.29332 19.1962 4.04091C19.3032 4.33639 19.4295 4.68473 19.4755 4.9911C19.5298 5.35314 19.4942 5.69486 19.3583 6.07313C19.0672 6.88354 18.4143 7.24625 17.6952 7.6454L16.2773 8.43641C15.7646 8.72237 15.4256 8.91131 15.1845 9.07802C14.9497 9.24032 14.8831 9.33182 14.8554 9.38563C14.8408 9.41396 14.7956 9.55258 14.8075 10.0009C14.8189 10.4244 14.8732 10.9989 14.9521 11.8163C15.0792 13.1344 14.8612 14.4407 14.1005 15.6571C13.9722 15.8626 13.8101 16.1212 13.6298 16.3134C13.4168 16.5403 13.1714 16.701 12.8554 16.829C12.5336 16.9594 12.2406 17.0121 11.9247 16.9979C11.656 16.9859 11.3474 16.9159 11.0898 16.8573C9.42523 16.4794 7.82581 15.6041 6.46867 14.4442L1.70696 19.2069C1.31643 19.5974 0.683417 19.5974 0.292893 19.2069C-0.0976311 18.8164 -0.0976311 18.1834 0.292893 17.7929L5.05364 13.0311C3.89411 11.6742 3.02035 10.0742 2.6425 8.41005C2.58393 8.15254 2.51385 7.8438 2.50188 7.57509C2.48783 7.25921 2.54134 6.9662 2.6718 6.64442C2.79995 6.32843 2.96029 6.08298 3.18742 5.87001C3.3797 5.68973 3.63822 5.52848 3.84367 5.40028C5.04302 4.651 6.33827 4.4194 7.64641 4.53505C8.48162 4.60892 9.07078 4.66077 9.50383 4.66981C9.71768 4.67428 9.98861 4.69247 10.1298 4.61903C10.1822 4.59175 10.2735 4.5253 10.4364 4.28895C10.6033 4.04683 10.7935 3.70681 11.08 3.19325L11.8544 1.80458C12.2536 1.08549 12.6163 0.432655 13.4267 0.141492Z" fill="black"/>
</svg>
