<svg width="33" height="33" viewBox="0 0 33 33" fill="none" xmlns="http://www.w3.org/2000/svg">
<path d="M22.3767 0.236656C23.0075 0.0100331 23.5768 -0.0501662 24.1805 0.0403665C24.6914 0.11701 25.2726 0.327809 25.7654 0.506187C28.678 1.55924 30.9409 3.82213 31.9939 6.7347C32.1723 7.22751 32.3831 7.80871 32.4598 8.31966C32.5503 8.92332 32.4901 9.4926 32.2635 10.1234C31.7782 11.4739 30.6904 12.0773 29.492 12.7425L27.1287 14.0609C26.2741 14.5375 25.7093 14.8533 25.3074 15.1312C24.9165 15.4015 24.8049 15.5532 24.7586 15.6429C24.7342 15.6901 24.6586 15.9211 24.6785 16.6683C24.6973 17.3743 24.7893 18.3322 24.9207 19.6947C25.1325 21.8914 24.7676 24.0678 23.4998 26.0951C23.2859 26.4375 23.0171 26.8685 22.7166 27.1888C22.3615 27.5673 21.9523 27.8347 21.4256 28.0482C20.8893 28.2655 20.4012 28.3539 19.8748 28.3304C19.427 28.3104 18.9126 28.1927 18.4832 28.0951C15.7092 27.4652 13.0428 26.0084 10.781 24.0755L2.84452 32.012C2.19363 32.6628 1.13889 32.6629 0.488074 32.012C-0.162745 31.3612 -0.162638 30.3065 0.488074 29.6556L8.42362 21.7181C6.49112 19.4566 5.03481 16.7905 4.40507 14.0169C4.30748 13.5879 4.18971 13.074 4.16971 12.6263C4.14626 12.0997 4.23447 11.6109 4.45194 11.0745C4.66556 10.5477 4.93364 10.1386 5.31229 9.78353C5.63279 9.48306 6.06364 9.21399 6.40604 9.00033C8.4051 7.75146 10.5645 7.36607 12.7449 7.55892C14.1367 7.68202 15.118 7.76846 15.8396 7.78353C16.1962 7.79097 16.6483 7.82209 16.8836 7.69955C16.9709 7.65407 17.1227 7.54279 17.3943 7.14876C17.6725 6.74523 17.9892 6.17852 18.4666 5.32259L19.7576 3.00814C20.4228 1.80974 21.0262 0.721928 22.3767 0.236656Z" fill="white"/>
</svg>
