<svg width="28" height="28" viewBox="0 0 28 28" fill="none" xmlns="http://www.w3.org/2000/svg">
<path d="M27.8526 0.381775C27.8276 0.269275 27.7401 0.181775 27.6338 0.150525C23.9713 -0.743225 15.5151 2.44428 10.9338 7.02553C10.1151 7.83803 9.37131 8.71927 8.70881 9.65677C7.29631 9.53177 5.88381 9.63803 4.67756 10.163C1.27756 11.6568 0.290061 15.563 0.00881148 17.238C-0.0474385 17.563 0.171312 17.8755 0.502562 17.9318C0.558812 17.938 0.615062 17.9443 0.671312 17.938L6.12756 17.338C6.13381 17.7505 6.15881 18.163 6.20256 18.5693C6.22756 18.8505 6.35881 19.1193 6.55881 19.3193L8.67131 21.4255C8.87131 21.6255 9.14006 21.7568 9.42131 21.7818C9.82756 21.8255 10.2338 21.8505 10.6463 21.8568L10.0463 27.3068C10.0088 27.638 10.2526 27.938 10.5838 27.9693C10.6401 27.9755 10.6963 27.9755 10.7463 27.963C12.4213 27.6943 16.3338 26.7068 17.8213 23.3068C18.3463 22.1005 18.4526 20.6943 18.3338 19.288C19.2776 18.6255 20.1588 17.8755 20.9713 17.063C25.5651 12.4943 28.7338 4.22552 27.8526 0.381775ZM20.6213 11.6068C19.4526 12.7755 17.5526 12.7818 16.3838 11.6068C15.2088 10.438 15.2088 8.53802 16.3838 7.36303C17.5526 6.18803 19.4526 6.18803 20.6276 7.36303C21.7963 8.53802 21.7963 10.438 20.6213 11.6068Z" fill="black"/>
<path d="M8.52744 22.9496C8.18369 23.2933 7.63369 23.4246 6.97119 23.5433C5.48369 23.7933 4.17119 22.5121 4.43994 21.0121C4.53994 20.4433 4.84619 19.6433 5.03369 19.4558C5.13994 19.3496 5.14619 19.1746 5.03994 19.0683C4.97744 19.0058 4.89619 18.9746 4.80869 18.9871C3.97744 19.0871 3.20244 19.4683 2.61494 20.0558C1.13994 21.5308 1.00244 26.9871 1.00244 26.9871C1.00244 26.9871 6.46494 26.8496 7.93369 25.3746C8.52744 24.7808 8.90244 24.0121 9.00244 23.1746C9.02744 22.9183 8.70869 22.7621 8.52744 22.9496Z" fill="black"/>
</svg>
