<svg width="28" height="28" viewBox="0 0 28 28" fill="none" xmlns="http://www.w3.org/2000/svg">
<g clip-path="url(#clip0_656_404)">
<path d="M27.7432 5.51995C27.5596 5.33645 27.304 5.24368 27.0457 5.26729L17.653 6.11682C17.3148 6.14737 17.0249 6.37092 16.9092 6.69018C16.7935 7.00944 16.873 7.36683 17.1131 7.60695L19.105 9.59887L15.0794 13.6257L10.4337 8.98006C10.0921 8.63838 9.53802 8.63838 9.19632 8.98006L0.256307 17.9201C-0.0854356 18.2618 -0.0854356 18.8158 0.256307 19.1575L3.57841 22.4811C3.74926 22.6519 3.97319 22.7374 4.19712 22.7374C4.42105 22.7374 4.64498 22.6519 4.81583 22.4811L9.81514 17.4818L14.4609 22.1262C14.8027 22.4678 15.3565 22.4678 15.6982 22.1261L23.6659 14.1585L25.6576 16.1515C25.8978 16.3917 26.2552 16.4714 26.5746 16.3556C26.8939 16.2399 27.1175 15.9499 27.148 15.6116L27.996 6.21738C28.0193 5.95889 27.9267 5.7034 27.7432 5.51995Z" fill="black"/>
</g>
<defs>
<clipPath id="clip0_656_404">
<rect width="28" height="28" fill="white"/>
</clipPath>
</defs>
</svg>
