<svg width="34" height="40" viewBox="0 0 34 40" fill="none" xmlns="http://www.w3.org/2000/svg">
<path d="M33.6222 10.296C33.5744 9.24365 33.5744 8.23916 33.5744 7.23468C33.5744 6.42152 32.9526 5.7997 32.1394 5.7997C26.1604 5.7997 21.6163 4.07773 17.8375 0.394619C17.2635 -0.13154 16.4025 -0.13154 15.8285 0.394619C12.0497 4.07773 7.50565 5.7997 1.52657 5.7997C0.713421 5.7997 0.0915974 6.42152 0.0915974 7.23468C0.0915974 8.23916 0.0915973 9.24365 0.0437647 10.296C-0.147566 20.3408 -0.434562 34.1166 16.3547 39.9043L16.833 40L17.3113 39.9043C34.0527 34.1166 33.8136 20.3886 33.6222 10.296ZM15.685 24.2152C15.398 24.4544 15.0632 24.5979 14.6805 24.5979H14.6327C14.25 24.5979 13.8674 24.4066 13.6282 24.1196L9.17979 19.1928L11.3323 17.2795L14.824 21.154L22.5729 13.7877L24.534 15.8924L15.685 24.2152Z" fill="black"/>
</svg>
